<svg width="648" height="950" viewBox="0 0 648 950" fill="none" xmlns="http://www.w3.org/2000/svg">
<rect width="648" height="950" fill="#003E9C"/>
<path d="M124.643 534C124.867 534 125.075 533.776 125.267 533.328C125.491 532.88 125.603 532.144 125.603 531.12V508.08C125.603 507.056 125.491 506.336 125.267 505.92C125.043 505.472 124.819 505.232 124.595 505.2H140.339C143.059 505.2 145.251 505.6 146.915 506.4C148.611 507.168 149.859 508.288 150.659 509.76C151.459 511.2 151.859 512.928 151.859 514.944C151.859 516.992 151.459 518.768 150.659 520.272C149.859 521.744 148.611 522.88 146.915 523.68C145.251 524.448 143.059 524.832 140.339 524.832H132.995V531.12C132.995 532.144 133.107 532.88 133.331 533.328C133.555 533.776 133.779 534 134.003 534H124.643ZM134.963 519.552H137.363C139.251 519.552 140.707 519.392 141.731 519.072C142.787 518.752 143.523 518.256 143.939 517.584C144.355 516.912 144.563 516.032 144.563 514.944C144.563 513.888 144.339 513.04 143.891 512.4C143.475 511.76 142.771 511.312 141.779 511.056C140.819 510.768 139.507 510.624 137.843 510.624H134.963C133.971 510.624 133.395 510.688 133.235 510.816C133.075 510.912 132.995 511.28 132.995 511.92V518.208C132.995 518.848 133.075 519.232 133.235 519.36C133.395 519.488 133.971 519.552 134.963 519.552ZM155.955 534C156.179 534 156.403 533.776 156.627 533.328C156.851 532.88 156.963 532.144 156.963 531.12V508.08C156.963 507.056 156.851 506.336 156.627 505.92C156.403 505.472 156.179 505.232 155.955 505.2H183.987V506.64L184.947 512.208C184.147 511.856 182.739 511.488 180.723 511.104C178.707 510.688 176.275 510.48 173.427 510.48H166.323C165.363 510.48 164.787 510.56 164.595 510.72C164.435 510.848 164.355 511.248 164.355 511.92V515.472C164.355 516.176 164.435 516.592 164.595 516.72C164.787 516.848 165.347 516.912 166.275 516.912H173.187C175.043 516.912 176.531 516.816 177.651 516.624C178.803 516.4 179.555 516.176 179.907 515.952C179.779 516.56 179.635 517.264 179.475 518.064C179.315 518.864 179.187 519.632 179.091 520.368C178.995 521.104 178.947 521.712 178.947 522.192H166.275C165.347 522.192 164.787 522.256 164.595 522.384C164.435 522.48 164.355 522.896 164.355 523.632V527.184C164.355 527.92 164.435 528.352 164.595 528.48C164.755 528.608 165.315 528.672 166.275 528.672H179.235C181.091 528.672 182.579 528.464 183.699 528.048C184.851 527.6 185.603 527.168 185.955 526.752L184.995 532.512V534H155.955ZM189.33 534C189.554 534 189.778 533.776 190.002 533.328C190.226 532.88 190.338 532.144 190.338 531.12V508.08C190.338 507.056 190.226 506.336 190.002 505.92C189.778 505.472 189.554 505.232 189.33 505.2H204.402C207.218 505.2 209.586 505.472 211.506 506.016C213.426 506.56 214.962 507.312 216.114 508.272C217.298 509.232 218.194 510.336 218.802 511.584C219.41 512.8 219.81 514.096 220.002 515.472C220.226 516.848 220.338 518.24 220.338 519.648C220.338 520.928 220.226 522.256 220.002 523.632C219.81 524.976 219.394 526.272 218.754 527.52C218.146 528.736 217.25 529.84 216.066 530.832C214.914 531.792 213.378 532.56 211.458 533.136C209.57 533.712 207.218 534 204.402 534H189.33ZM199.65 528.672H201.618C204.37 528.672 206.578 528.448 208.242 528C209.906 527.52 211.122 526.656 211.89 525.408C212.658 524.16 213.042 522.352 213.042 519.984V519.12C213.042 516.624 212.69 514.784 211.986 513.6C211.282 512.384 210.098 511.584 208.434 511.2C206.77 510.816 204.498 510.624 201.618 510.624H199.65C198.722 510.624 198.162 510.688 197.97 510.816C197.81 510.912 197.73 511.296 197.73 511.968V527.232C197.73 527.936 197.81 528.352 197.97 528.48C198.162 528.608 198.722 528.672 199.65 528.672ZM234.897 534.48C232.177 534.48 229.777 534.224 227.697 533.712C225.649 533.2 224.161 532.704 223.233 532.224L224.193 525.84V524.4C224.769 525.072 225.553 525.792 226.545 526.56C227.537 527.296 228.673 527.92 229.953 528.432C231.265 528.944 232.625 529.2 234.033 529.2C235.441 529.2 236.497 528.8 237.201 528C237.937 527.2 238.305 525.84 238.305 523.92V508.08C238.305 507.056 238.193 506.336 237.969 505.92C237.745 505.472 237.521 505.232 237.297 505.2H246.705C246.481 505.2 246.257 505.424 246.033 505.872C245.809 506.32 245.697 507.072 245.697 508.128V523.92C245.697 526.736 245.249 528.912 244.353 530.448C243.489 531.952 242.241 533.008 240.609 533.616C239.009 534.192 237.105 534.48 234.897 534.48ZM266.135 534.48C262.903 534.48 260.247 533.968 258.167 532.944C256.087 531.92 254.551 530.448 253.559 528.528C252.567 526.576 252.071 524.256 252.071 521.568V508.032C252.071 507.008 251.959 506.288 251.735 505.872C251.543 505.424 251.335 505.2 251.111 505.2H260.327C260.103 505.232 259.879 505.456 259.655 505.872C259.463 506.288 259.367 507.008 259.367 508.032V521.472C259.367 523.52 259.655 525.104 260.231 526.224C260.807 527.344 261.607 528.112 262.631 528.528C263.655 528.944 264.839 529.152 266.183 529.152H266.711C267.767 529.152 268.695 529.04 269.495 528.816C270.327 528.592 271.015 528.208 271.559 527.664C272.135 527.12 272.567 526.352 272.855 525.36C273.175 524.336 273.335 523.04 273.335 521.472V508.032C273.335 507.008 273.223 506.288 272.999 505.872C272.807 505.424 272.599 505.2 272.375 505.2H281.591C281.367 505.232 281.143 505.472 280.919 505.92C280.727 506.336 280.631 507.056 280.631 508.08V521.568C280.631 524.256 280.119 526.576 279.095 528.528C278.103 530.448 276.567 531.92 274.487 532.944C272.439 533.968 269.815 534.48 266.615 534.48H266.135ZM281.521 534C281.681 534 281.921 533.776 282.241 533.328C282.593 532.88 282.993 532.128 283.441 531.072C283.665 530.592 284.017 529.776 284.497 528.624C285.009 527.44 285.585 526.08 286.225 524.544C286.897 522.976 287.585 521.344 288.289 519.648C289.025 517.952 289.713 516.32 290.353 514.752C291.025 513.184 291.601 511.808 292.081 510.624C292.593 509.44 292.945 508.592 293.137 508.08C293.553 507.056 293.777 506.32 293.809 505.872C293.841 505.424 293.777 505.2 293.617 505.2H304.081C303.953 505.2 303.905 505.424 303.937 505.872C303.969 506.288 304.193 507.024 304.609 508.08C304.801 508.592 305.137 509.44 305.617 510.624C306.097 511.776 306.657 513.136 307.297 514.704C307.937 516.24 308.609 517.856 309.313 519.552C310.017 521.248 310.689 522.88 311.329 524.448C311.969 525.984 312.545 527.344 313.057 528.528C313.569 529.712 313.937 530.56 314.161 531.072C314.641 532.128 315.105 532.88 315.553 533.328C316.001 533.776 316.337 534 316.561 534H305.665C305.921 533.968 306.129 533.728 306.289 533.28C306.481 532.8 306.481 532.064 306.289 531.072C306.257 530.848 306.225 530.672 306.193 530.544C306.161 530.384 306.097 530.16 306.001 529.872C305.873 529.392 305.729 529.056 305.569 528.864C305.409 528.64 305.137 528.512 304.753 528.48C304.401 528.448 303.809 528.432 302.977 528.432H294.721C293.857 528.432 293.217 528.464 292.801 528.528C292.385 528.56 292.097 528.672 291.937 528.864C291.777 529.056 291.649 529.376 291.553 529.824C291.521 529.984 291.473 530.192 291.409 530.448C291.377 530.704 291.345 530.912 291.313 531.072C291.089 532.096 291.025 532.832 291.121 533.28C291.249 533.728 291.409 533.968 291.601 534H281.521ZM295.969 523.152H301.585C302.513 523.152 303.025 523.072 303.121 522.912C303.217 522.752 303.169 522.4 302.977 521.856C302.561 520.832 302.145 519.792 301.729 518.736C301.313 517.648 300.913 516.592 300.529 515.568C300.177 514.544 299.857 513.6 299.569 512.736C299.313 511.84 299.089 511.088 298.897 510.48H298.801C298.353 511.664 297.889 512.912 297.409 514.224C296.929 515.536 296.481 516.752 296.065 517.872C295.649 518.992 295.313 519.92 295.057 520.656C294.801 521.36 294.673 521.712 294.673 521.712C294.449 522.224 294.369 522.592 294.433 522.816C294.497 523.04 295.009 523.152 295.969 523.152ZM319.08 534C319.304 534 319.528 533.776 319.752 533.328C319.976 532.88 320.088 532.144 320.088 531.12V508.08C320.088 507.056 319.976 506.336 319.752 505.92C319.528 505.472 319.304 505.232 319.08 505.2H328.488C328.264 505.2 328.2 505.424 328.296 505.872C328.424 506.32 328.952 507.088 329.88 508.176C330.136 508.432 330.552 508.912 331.128 509.616C331.736 510.288 332.456 511.104 333.288 512.064C334.12 513.024 335 514.064 335.928 515.184C336.888 516.304 337.848 517.424 338.808 518.544C339.8 519.664 340.744 520.736 341.64 521.76H341.688V508.08C341.688 507.056 341.576 506.336 341.352 505.92C341.128 505.472 340.904 505.232 340.68 505.2H350.088C349.864 505.2 349.64 505.424 349.416 505.872C349.192 506.32 349.08 507.072 349.08 508.128V531.12C349.08 532.144 349.192 532.88 349.416 533.328C349.64 533.776 349.864 534 350.088 534H341.832C342.024 534 342.04 533.776 341.88 533.328C341.752 532.88 341.256 532.112 340.392 531.024C339.944 530.448 339.352 529.712 338.616 528.816C337.88 527.888 337.048 526.864 336.12 525.744C335.224 524.624 334.28 523.456 333.288 522.24C332.296 521.024 331.304 519.84 330.312 518.688C329.352 517.504 328.456 516.416 327.624 515.424H327.48V531.12C327.48 532.144 327.592 532.88 327.816 533.328C328.04 533.776 328.264 534 328.488 534H319.08ZM368.476 534.48C364.124 534.48 360.684 533.28 358.156 530.88C355.66 528.448 354.412 524.72 354.412 519.696C354.412 516.752 354.972 514.16 356.092 511.92C357.212 509.648 358.988 507.888 361.42 506.64C363.852 505.36 367.004 504.72 370.876 504.72C373.916 504.72 376.428 504.88 378.412 505.2C380.428 505.52 381.804 505.84 382.54 506.16V507.6L383.5 512.88C382.636 512.24 381.116 511.6 378.94 510.96C376.764 510.32 374.108 510 370.972 510C368.828 510 367.068 510.368 365.692 511.104C364.316 511.808 363.308 512.88 362.668 514.32C362.028 515.76 361.708 517.552 361.708 519.696C361.708 522 361.996 523.856 362.572 525.264C363.148 526.64 364.076 527.632 365.356 528.24C366.636 528.848 368.332 529.152 370.444 529.152C372.044 529.152 373.34 528.992 374.332 528.672C375.324 528.32 376.06 527.856 376.54 527.28C377.02 526.672 377.26 526 377.26 525.264V524.496C377.26 523.76 377.196 523.344 377.068 523.248C376.972 523.12 376.556 523.056 375.82 523.056H374.284C373.196 523.056 372.268 523.168 371.5 523.392C370.732 523.616 370.188 523.84 369.868 524.064L370.348 519.312V517.872H385.468C385.244 517.904 385.02 518.144 384.796 518.592C384.604 519.008 384.508 519.728 384.508 520.752V531.12C384.508 532.144 384.604 532.88 384.796 533.328C385.02 533.776 385.244 534 385.468 534H377.26V533.376L377.356 532.032L377.26 531.936C377.036 532.256 376.588 532.624 375.916 533.04C375.244 533.424 374.3 533.76 373.084 534.048C371.9 534.336 370.364 534.48 368.476 534.48ZM401.814 534C402.038 534 402.246 533.792 402.438 533.376C402.662 532.928 402.774 532.176 402.774 531.12V508.08C402.774 507.056 402.662 506.32 402.438 505.872C402.246 505.424 402.038 505.2 401.814 505.2H411.078C410.854 505.2 410.63 505.424 410.406 505.872C410.182 506.288 410.07 507.04 410.07 508.128V531.12C410.07 532.144 410.182 532.88 410.406 533.328C410.63 533.776 410.854 534 411.078 534H401.814ZM415.877 534C416.101 534 416.325 533.776 416.549 533.328C416.773 532.88 416.885 532.144 416.885 531.12V508.08C416.885 507.056 416.773 506.336 416.549 505.92C416.325 505.472 416.101 505.232 415.877 505.2H425.285C425.061 505.2 424.837 505.424 424.613 505.872C424.389 506.32 424.277 507.072 424.277 508.128V527.184C424.277 527.888 424.357 528.32 424.517 528.48C424.709 528.608 425.285 528.672 426.245 528.672H437.813C439.669 528.672 441.157 528.464 442.277 528.048C443.429 527.6 444.181 527.168 444.533 526.752L443.093 532.512V534H415.877ZM447.423 534C447.647 534 447.871 533.776 448.095 533.328C448.319 532.88 448.431 532.144 448.431 531.12V508.08C448.431 507.056 448.319 506.336 448.095 505.92C447.871 505.472 447.647 505.232 447.423 505.2H458.751C458.559 505.232 458.463 505.488 458.463 505.968C458.495 506.416 458.767 507.152 459.279 508.176C459.503 508.592 459.823 509.248 460.239 510.144C460.687 511.04 461.183 512.08 461.727 513.264C462.303 514.448 462.895 515.712 463.503 517.056C464.143 518.4 464.783 519.744 465.423 521.088C466.063 522.432 466.655 523.696 467.199 524.88H467.247C467.823 523.696 468.431 522.448 469.071 521.136C469.743 519.792 470.399 518.448 471.039 517.104C471.679 515.76 472.287 514.496 472.863 513.312C473.439 512.096 473.935 511.04 474.351 510.144C474.767 509.216 475.071 508.528 475.263 508.08C475.711 507.056 475.951 506.32 475.983 505.872C476.015 505.424 475.951 505.2 475.791 505.2H487.119C486.895 505.2 486.671 505.424 486.447 505.872C486.223 506.32 486.111 507.072 486.111 508.128V531.12C486.111 532.144 486.223 532.88 486.447 533.328C486.671 533.776 486.895 534 487.119 534H477.855C478.079 534 478.287 533.776 478.479 533.328C478.703 532.88 478.815 532.144 478.815 531.12V515.568H478.719C478.207 516.528 477.663 517.584 477.087 518.736C476.511 519.888 475.919 521.056 475.311 522.24C474.735 523.424 474.175 524.576 473.631 525.696C473.087 526.816 472.591 527.84 472.143 528.768C471.695 529.696 471.327 530.48 471.039 531.12C470.591 532.112 470.351 532.832 470.319 533.28C470.319 533.728 470.399 533.968 470.559 534H463.839C463.999 533.968 464.063 533.728 464.031 533.28C464.031 532.832 463.807 532.112 463.359 531.12C463.103 530.544 462.751 529.792 462.303 528.864C461.887 527.936 461.407 526.928 460.863 525.84C460.351 524.72 459.807 523.568 459.231 522.384C458.655 521.168 458.079 519.984 457.503 518.832C456.959 517.648 456.447 516.56 455.967 515.568H455.823V531.12C455.823 532.144 455.935 532.88 456.159 533.328C456.383 533.776 456.607 534 456.831 534H447.423ZM506.932 534.48C503.7 534.48 501.044 533.968 498.964 532.944C496.884 531.92 495.348 530.448 494.356 528.528C493.364 526.576 492.868 524.256 492.868 521.568V508.032C492.868 507.008 492.756 506.288 492.532 505.872C492.34 505.424 492.132 505.2 491.908 505.2H501.124C500.9 505.232 500.676 505.456 500.452 505.872C500.26 506.288 500.164 507.008 500.164 508.032V521.472C500.164 523.52 500.452 525.104 501.028 526.224C501.604 527.344 502.404 528.112 503.428 528.528C504.452 528.944 505.636 529.152 506.98 529.152H507.508C508.564 529.152 509.492 529.04 510.292 528.816C511.124 528.592 511.812 528.208 512.356 527.664C512.932 527.12 513.364 526.352 513.652 525.36C513.972 524.336 514.132 523.04 514.132 521.472V508.032C514.132 507.008 514.02 506.288 513.796 505.872C513.604 505.424 513.396 505.2 513.172 505.2H522.388C522.164 505.232 521.94 505.472 521.716 505.92C521.524 506.336 521.428 507.056 521.428 508.08V521.568C521.428 524.256 520.916 526.576 519.892 528.528C518.9 530.448 517.364 531.92 515.284 532.944C513.236 533.968 510.612 534.48 507.412 534.48H506.932Z" fill="#F3F7FB"/>
<path d="M330.296 421.123H285.15C283.785 421.179 282.448 421.52 281.233 422.123C280.017 422.726 278.951 423.577 278.109 424.616L229.326 471.64C227.789 473.124 226.466 475.716 223.86 474.814C221.254 473.913 222.148 471.058 222.148 469.011C222.148 454.945 222.148 440.841 222.032 426.775C221.932 424.757 222.285 422.743 223.067 420.869C223.85 418.995 225.042 417.307 226.564 415.92C248.128 395.338 269.557 374.674 290.85 353.928C294.993 349.928 295.868 350.041 299.252 354.811C304.582 362.323 310.009 369.666 315.124 377.347C317.634 381.103 319.443 381.103 322.73 377.929C340.897 360.031 359.298 342.397 377.562 324.725C384.779 317.758 392.034 310.847 399.212 303.842C401.915 301.232 404.249 300.969 406.992 303.955C420.861 319.298 427.63 336.895 425.607 357.402C423.078 383.319 409.365 402.023 385.926 414.287C378.05 418.654 369.139 420.983 360.056 421.047C350.175 420.935 340.294 421.047 330.394 421.047L330.296 421.123Z" fill="#F3F7FB"/>
<path d="M293.065 281.039C311.394 281.039 329.722 281.245 348.031 281.039C360.232 280.673 372.367 282.893 383.579 287.544C387.782 289.325 388.366 290.75 385.136 293.899C370.037 308.547 354.919 323.144 339.781 337.691C334.645 342.659 329.352 347.477 324.333 352.576C321.725 355.22 320.091 354.451 318.242 351.92C312.405 343.859 306.393 335.911 300.731 327.774C298.513 324.625 297.015 324.344 294.096 327.193C272.214 348.44 250.247 369.642 228.195 390.801C227.203 391.757 226.366 393.294 224.674 392.863C222.981 392.432 223.37 390.576 222.981 389.301C221.522 384.614 223.234 379.928 223.214 375.316C223.02 346.427 223.078 317.52 223.078 288.631C223.078 281.714 223.681 281.133 230.861 281.133C251.576 281.07 272.311 281.039 293.065 281.039Z" fill="#F3F7FB"/>
</svg>
